# xmcd
#
# Track frame offsets: 
#        182
#        17405
#        35985
#        55202
#        66397
#        94945
#        103410
#        119670
#        139405
#
# Disc length: 2535 seconds
#
# Revision: 1
# Processed by: cddbd v1.5.2PL0 Copyright (c) Steve Scherf et al.
# Submitted via: ExactAudioCopy v0.99pb5
#
DISCID=8d09e509
DTITLE=Paul McCartney and Wings - Red Rose Speedway
DYEAR=1973
DGENRE=Rock
TTITLE0=Big Barn Bed
TTITLE1=My Love
TTITLE2=Get On The Right Thing
TTITLE3=One More Kiss
TTITLE4=Little Lamb Dragonfly
TTITLE5=Single Pigeon
TTITLE6=When The Night
TTITLE7=Loup (1st Indian on the Moon)
TTITLE8=Medley
EXTD=
EXTT0=
EXTT1=
EXTT2=
EXTT3=
EXTT4=
EXTT5=
EXTT6=
EXTT7=
EXTT8=
PLAYORDER=
